<?xml version="1.0" standalone="no"?>
<!DOCTYPE svg PUBLIC "-//W3C//DTD SVG 20010904//EN"
 "http://www.w3.org/TR/2001/REC-SVG-20010904/DTD/svg10.dtd">
<svg version="1.0" xmlns="http://www.w3.org/2000/svg"
 width="229.000000pt" height="214.000000pt" viewBox="0 0 229.000000 214.000000"
 preserveAspectRatio="xMidYMid meet">

<g transform="translate(0.000000,214.000000) scale(0.100000,-0.100000)"
fill="#efb810" stroke="none">
<path d="M1062 1948 c-7 -7 -12 -44 -12 -94 0 -94 12 -115 55 -96 24 11 25 16
25 95 0 84 -8 107 -40 107 -9 0 -21 -5 -28 -12z"/>
<path d="M1372 1817 l-102 -103 20 -22 c12 -12 26 -22 33 -22 21 0 197 184
197 206 0 22 -17 44 -35 44 -6 0 -56 -46 -113 -103z"/>
<path d="M710 1835 c-22 -26 -3 -59 79 -139 69 -66 83 -76 99 -67 44 23 36 42
-55 133 -48 48 -93 88 -99 88 -6 0 -17 -7 -24 -15z"/>
<path d="M1583 1641 c-21 -37 -39 -55 -76 -73 l-49 -24 54 -27 c43 -22 59 -37
76 -73 25 -50 35 -50 52 1 8 25 26 43 67 69 l57 34 -50 25 c-39 20 -55 35 -69
67 -10 22 -22 43 -26 46 -5 3 -21 -17 -36 -45z"/>
<path d="M998 1547 l-118 -101 0 -57 0 -57 -330 -323 -330 -324 0 -46 c0 -42
4 -50 45 -88 35 -33 52 -41 81 -41 34 0 48 11 168 128 380 372 522 505 574
543 31 23 101 85 155 138 122 120 122 122 27 236 -108 128 -115 128 -272 -8z
m187 -57 l40 -41 -71 -69 -70 -69 -45 45 -44 46 70 64 c39 35 72 64 75 64 3 0
24 -18 45 -40z m-226 -253 c8 -11 -44 -67 -237 -258 -379 -376 -386 -383 -403
-363 -13 15 18 49 301 326 173 169 318 308 321 308 4 0 11 -6 18 -13z"/>
<path d="M638 1519 c-22 -13 -23 -55 -2 -63 28 -11 140 -6 152 6 16 16 15 33
-4 52 -18 18 -118 22 -146 5z"/>
<path d="M1370 1295 c-17 -21 -4 -64 23 -74 32 -13 57 4 57 39 0 44 -53 67
-80 35z"/>
<path d="M1055 1076 c-14 -21 -15 -74 -13 -448 2 -342 6 -428 17 -441 19 -24
123 -24 142 0 11 12 15 79 19 295 l5 280 100 -234 c55 -128 108 -241 117 -250
23 -23 73 -23 96 0 10 10 31 49 47 88 16 38 62 146 102 239 l72 170 1 -280 c0
-332 -2 -325 89 -325 97 0 91 -29 91 461 0 368 -2 428 -16 447 -14 20 -23 22
-108 22 -63 0 -97 -4 -104 -12 -5 -7 -33 -69 -61 -138 -143 -344 -165 -392
-173 -374 -55 132 -201 475 -211 494 -12 24 -18 25 -104 28 -88 3 -93 2 -108
-22z"/>
</g>
</svg>
