<?xml version="1.0" encoding="UTF-8"?>
<svg id="Layer_1" data-name="Layer 1" xmlns="http://www.w3.org/2000/svg" viewBox="0 0 1080 1080">
  <path d="M207.06,817.05c.91-92.36,8.07-184.46,10.19-276.79,1.17-51.01,8.01-102.23-49.58-121.18-7.6-2.5-20.12-.71-20.09-10.45s12.51-8.95,21.06-9.46c47.76-2.8,98.23,2.28,146.28.02,10.22.87,15.54,3.42,21.22,12.06,20.89,31.74,33.65,80.08,54.42,111.89.9,1.38,1.52,3.78,3.81,3.27,45.09-45.07,90.47-89.87,135.43-135.07,64.38-64.73,128.11-131.79,193.13-195.99,8.97-8.86,28.88-30.14,37.63-36.09,10.87-7.38,23.11-5.39,33.66,1.09,6.7,4.12,28.03,27.57,30.6,34.48,3.4,9.14,1.63,15.73-3.56,23.61l-389.71,387.11,85.19,179.68c-.16-.17-2.1.54-2.63-.24-.47-.68-2.69-9.34-3.65-10.84-5.39-8.5-7.57.45-9.07.87-2.12.6-5.11-1.94-8.2-1.15-1.68.43-4.19,3.75-6.76,4.94-7.82,3.61-20.85,4.14-29.49,3.04-1.69-.22-3.12-2.75-5.99-2.47-.75.07-.65,2.76-1.73,3.01-3.05.68-5.9-1.24-8.62-1.35-4.96-.19-14.09,2.99-13.59-5.92-5.03,2.51-9.38,3.45-14.95,1.19-2.88-1.17-1.66-3.8-2.77-5.15-.97-1.17-11.36-10.16-14.07-12.74-3.17-3.02-5.59-.43-2.93-6.41-1.85.09-5.22-1.18-4.29,2.1,2.16,7.63,9.31,12.66,8.63,21.02-43.63-86.66-88.28-172.83-131.33-259.8l-3.24-1.86c-.35,6.96.43,14.06.05,21.01-5.8,107.03-11.18,214.51-13.08,321.6-2.67,9.73-1.44,21.57-1.45,31.8-.01,11.06,0,22.19,0,33.25,0-.26-1.53-2.25-1.55-4.89-.3-41.79,2.12-83.45,1.55-125.21-11.47-1.41-9.47,12.32-10.13,13-2.79,2.88-5.63-3.95-6.86-4.33-1.68-.52-4.52.56-6.26-.62-1.17-.8-11.4-23.26-11.96-25.68-.8-3.48,2.92-9.49-2.41-8.39l-1.44,58.61-1.46,2.1c0-2.89-.03-5.78,0-8.67ZM704.35,249.84c-2.94,2.92-13.59,9.3-12.36,13.95,1.15,4.37,18.71,16.3,20.74,22.8l4.15,1.18c8.71-10.26,84.88-78.41,83.34-84.12-.79-2.93-21.42-24.9-24.88-23.99-.95.25-12.78,10.94-14.83,12.81-19.12,17.39-37.58,38.92-56.15,57.37ZM521.62,482.21c57.15-56.39,114.47-112.64,170.95-169.73,1.23-1.99.95-3.71,0-5.73-.63-1.35-19.68-20.39-21-21.08-1.69-.87-2.41-.69-3.65.72l-261.6,260.66-2.25,5.79c5.97,8.68,8.63,19.14,13.95,28.15.7,1.18-.42,2.41,2.47,1.83,33.63-33.63,67.29-67.24,101.13-100.63Z"/>
  <path d="M207.06,825.72c-.02,11.27.45,22.73,0,33.99-.14,3.56,1.02,4.72-2.89,2.15.2-5.27-.1-10.62,0-15.9l1.42-.72-1.42-.72c.16-7.17.62-11.93,1.45-18.79h1.45Z"/>
  <path d="M958.1,877.77c-1.45-21.11-2.94-43.4-5.86-64.26-.52-3.69.89-19.95.07-21.03-5.45-1.17-1.95,7.22-2.86,10.62-.3,1.13-5.21.9-2.83,3.77.37.45,4.09-1,2.81,2.92-3.75-1.04-6.03,4.16-6.79,4.33-5.55,1.27-11.72-1.29-16.71-1.05-5.49.26-22.28,2.83-27.49,4.35-3.53,1.04-4.9,3.85-8.33,3.95l-.02-5.78c-12.71,5.27-7.69-3.95-10.16-5.76-1.28-.93-6.44,2.07-8.63,1.42-1.22-3.77,4.34-3.61,4.42-5.22.02-.31-1.42-4.7-1.62-4.85-2.29-1.67-8.76,7.24-9.5-8.26-.19-4.04,3.56-5.41-3.43-4.8.26,11.31-.35,22.72-.07,34.04.71,28.4,1.75,54.87,1.51,83.07l-13.03-362.86-115.76,225.52c.67-2.84.72-7.04,1.43-10.12-14.19,18.54-23.58,7.73-24.59-11.57-5.64-1.24-.79,3.84-1.43,4.33-.38.29-2.85-.58-3.96.32-1.42,1.15-2.62,8.81-3.79,10.79-.47.79-2.72,1.49-3.84,3.36,42.48-85.34,83.68-171.52,128.04-255.91,16.07-30.57,42.15-94.11,75.67-105.11,16.44-5.39,76.13-5.06,95.18-3.35,6.92.62,11.58,2.45,9.06,10.63-1.45,4.72-24.01,10.1-30.85,14.01-44.72,25.59-28.03,90.34-26.7,133.67,2.37,77.09,3.05,154.32,8.68,231.31l1.39,87.52Z"/>
  <path d="M697.62,765c1.12-1.87,3.37-2.57,3.84-3.36,1.17-1.98,2.37-9.64,3.79-10.79,1.1-.9,3.58-.03,3.96-.32.64-.49-4.21-5.57,1.43-4.33,1.02,19.3,10.41,30.11,24.59,11.57-.71,3.08-.76,7.27-1.43,10.12-.11.46.12,1,0,1.45l-1.45,1.45c-.54,1.72-1.27,2.41-1.45,2.89l-5.62,8.42c-2.63,7.93-7.01,15.75-11.34,23.07l-3.3,11.88c-40.55,84.34-83.9,167.32-125.65,251.07-7.05,17.08-33.79,14.55-42.49.04-48.18-97.9-96.82-195.59-145.87-293.03.68-8.37-6.48-13.4-8.63-21.02-.93-3.28,2.44-2.01,4.29-2.1-2.65,5.98-.24,3.39,2.93,6.41,2.71,2.58,13.1,11.57,14.07,12.74,1.11,1.35-.11,3.98,2.77,5.15,5.56,2.26,9.92,1.32,14.95-1.19-.5,8.91,8.64,5.73,13.59,5.92,2.72.11,5.57,2.03,8.62,1.35,1.08-.24.98-2.94,1.73-3.01,2.87-.27,4.3,2.26,5.99,2.47,8.64,1.1,21.67.57,29.49-3.04,2.57-1.19,5.08-4.51,6.76-4.94,3.09-.79,6.08,1.75,8.2,1.15,1.5-.43,3.68-9.37,9.07-.87.96,1.51,3.18,10.16,3.65,10.84.53.78,2.47.07,2.63.24,5.75,6.27,16.85,31.99,21.53,41.37,18.25,36.55,35.3,82.06,55.86,116.23,1.21,2.02,4.66,9.28,7.24,8.64,1.13-.28,10.15-17.47,11.63-20.2,29.11-54.03,53.32-113.83,84.62-166.28Z"/>
  <path d="M862.59,905.23c.24-28.2-.8-54.67-1.51-83.07-.28-11.33.32-22.73.07-34.04,6.99-.61,3.24.76,3.43,4.8.74,15.5,7.21,6.59,9.5,8.26.21.15,1.64,4.54,1.62,4.85-.08,1.61-5.64,1.45-4.42,5.22,2.19.65,7.36-2.35,8.63-1.42,2.47,1.81-2.54,11.03,10.16,5.76l.02,5.78c3.43-.1,4.8-2.91,8.33-3.95,5.21-1.53,22-4.09,27.49-4.35,4.99-.23,11.16,2.32,16.71,1.05.76-.17,3.04-5.37,6.79-4.33,1.28-3.92-2.44-2.48-2.81-2.92-2.37-2.87,2.53-2.65,2.83-3.77.91-3.4-2.59-11.79,2.86-10.62.82,1.08-.59,17.34-.07,21.03,2.92,20.85,4.41,43.15,5.86,64.26.1,1.43-.1,2.9,0,4.34l1.45,2.89c2.16,32.39,1.67,65.22,4.36,97.57,2.51,30.26,5.52,60.1,36.64,73.27,6.33,2.68,25.11,6.48,27.88,9.73,3.84,4.51,3.22,11.67-3.35,12.83l-226.93.39c-7.88.29-9.85-3.07-7.61-10.63,1.77-5.97,29.19-9.83,36.64-12.53,8.76-3.18,17.88-7.95,23.81-15.24,21.31-26.23,11.32-100.66,11.61-135.14Z"/>
  <path d="M207.06,825.72l1.46-2.1,1.44-58.61c5.32-1.1,1.61,4.91,2.41,8.39.56,2.42,10.79,24.89,11.96,25.68,1.74,1.18,4.57.1,6.26.62,1.23.38,4.07,7.21,6.86,4.33.66-.68-1.34-14.41,10.13-13,.57,41.77-1.85,83.42-1.55,125.21.02,2.64,1.55,4.63,1.55,4.89.57,50.9-11.07,110.91,46.33,135.15,10.95,4.62,35.74,5.35,27.5,21.75H124.55c-7.12-15.52,11.35-14.65,21.71-18.86,26.95-10.94,42.01-37.07,48.51-64.3l6.51-41.93c.05,1.84-1.18,7.31,1.43,7.22-.84-8.77,1.87-19.21-1.43-27.46.06-23.73,2-47.17,2.89-70.84,3.92,2.57,2.75,1.41,2.89-2.15.45-11.26-.02-22.72,0-33.99Z"/>
  <path d="M207.06,825.72h-1.45c.32-2.68-1.2-7.05,1.45-8.67-.03,2.89,0,5.78,0,8.67Z"/>
  <path d="M950.83,172.29c1.04.85,6.45,20.92,8.46,25.54,7.72,17.75,16.38,31.96,33.99,41.22,10.64,5.59,24.37,7.74,33.87,12.43,1.76.87,3.33,1.55,3.32,3.91-.01,1.95-30.83,11.53-36.22,14.45-30.87,16.68-29.7,37.83-41.83,65.19-.86,1.94-1.09,3.49-3.71,3.52-1.82.02-10.08-29.8-12.05-34.25-15.94-36.02-32.72-32.95-63.32-46.62-1.73-.77-3.84-1.28-3.53-3.7,29.25-10.69,51.02-15.87,65.38-46.03,5.1-10.71,9.43-24.38,11.33-35.65,1.18.16,3.9-.34,4.31,0Z"/>
  <path d="M879.23,8.12c8.25.02,13.77,10.69,10.05,18.08l-49.2,86.73c-9.23,12.54-25.25,3.02-19.76-11.08l46.86-86.18c2.13-3.73,7.79-7.56,12.06-7.55Z"/>
  <path d="M689.98.52c7.05-2.11,12.61,2.45,15.62,8.38,13.63,26.79,20.8,62.94,33.7,90.75,2.84,10.47-11.34,18.17-18.5,11.16-1.97-1.92-8.09-19.24-9.79-23.47-10.16-25.28-18.01-51.53-28.97-76.51-.26-2.98,5.25-9.51,7.94-10.32Z"/>
  <path d="M802.86,304.12c5.17-1.13,9.29.08,12.64,4.11,5.54,6.69,15.33,31.34,19.85,40.89,7.97,16.84,15.33,34.1,22.64,51.24,1.51,11.46-14.01,17.24-19.75,6.59-10.28-24.33-23.19-47.63-33.79-71.78-3.45-7.87-15.48-28-1.59-31.05Z"/>
  <path d="M569.21,127.83c1.52-1.6,7.44-3.72,9.77-2.69,27.53,12.11,61.26,18.31,88.24,30.54,17.73,8.04,13.21,24.44-3.22,22.06l-89.38-32.2c-7.26-1.64-9.88-12.99-5.4-17.71Z"/>
  <path d="M247.58,887.88c.01-10.24-1.22-22.08,1.45-31.8-.18,10.3,1.35,22.02-1.45,31.8Z"/>
  <path d="M201.27,932.7c3.3,8.25.6,18.69,1.43,27.46-2.61.08-1.38-5.38-1.43-7.22-.18-6.71-.02-13.52,0-20.24Z"/>
  <path d="M730.91,773.68c-5.59,14.87-13.34,28.98-20.26,43.37l3.3-11.88c4.33-7.32,8.71-15.14,11.34-23.07l5.62-8.42Z"/>
  <path d="M959.54,884.99l-1.45-2.89c.01.16,1.28.32,1.45,2.89Z"/>
  <path d="M732.35,770.79l1.45-1.45c-.3,1.09-1.42,1.35-1.45,1.45Z"/>
  <path d="M204.17,845.96c0-.48-.01-.96,0-1.45l1.42.72-1.42.72Z"/>
</svg>