<?xml version="1.0" encoding="UTF-8"?>
<svg id="Layer_1" data-name="Layer 1" xmlns="http://www.w3.org/2000/svg" xmlns:xlink="http://www.w3.org/1999/xlink" viewBox="0 0 1080 1080">
  <defs>
    <style>
      .cls-1 {
        fill: #fff;
      }

      .cls-2 {
        fill: url(#linear-gradient);
      }
    </style>
    <linearGradient id="linear-gradient" x1="537.03" y1="1115.32" x2="543.3" y2="-97.55" gradientUnits="userSpaceOnUse">
      <stop offset="0" stop-color="#8340b5"/>
      <stop offset="1" stop-color="#ce54b4"/>
    </linearGradient>
  </defs>
  <rect class="cls-2" y="1.03" width="1080" height="1080" rx="206.6" ry="206.6"/>
  <g>
    <path class="cls-1" d="M216.24,751.18c.8-80.86,7.07-161.49,8.92-242.32,1.02-44.66,7.01-89.5-43.4-106.09-6.65-2.19-17.62-.63-17.59-9.15s10.95-7.84,18.44-8.28c41.81-2.45,86,1.99,128.06.02,8.95.76,13.6,3,18.57,10.55,18.29,27.79,29.46,70.11,47.64,97.96.79,1.21,1.33,3.31,3.34,2.86,39.48-39.46,79.21-78.68,118.57-118.26,56.36-56.67,112.16-115.38,169.08-171.59,7.86-7.76,25.28-26.39,32.95-31.59,9.51-6.46,20.24-4.72,29.46.96,5.87,3.61,24.54,24.13,26.79,30.19,2.98,8.01,1.43,13.77-3.12,20.67l-341.18,338.91,74.58,157.31c-.14-.15-1.84.47-2.3-.21-.41-.6-2.36-8.18-3.19-9.49-4.72-7.44-6.62.39-7.94.76-1.85.53-4.47-1.7-7.18-1.01-1.47.38-3.67,3.28-5.92,4.33-6.85,3.16-18.25,3.62-25.82,2.66-1.48-.19-2.73-2.41-5.24-2.17-.66.06-.57,2.42-1.52,2.63-2.67.6-5.16-1.08-7.55-1.18-4.34-.17-12.34,2.61-11.9-5.18-4.4,2.2-8.22,3.02-13.09,1.04-2.52-1.02-1.45-3.32-2.43-4.51-.85-1.03-9.95-8.9-12.32-11.16-2.78-2.65-4.89-.38-2.57-5.61-1.62.08-4.57-1.03-3.76,1.84,1.89,6.68,8.15,11.08,7.56,18.4-38.2-75.87-77.29-151.31-114.98-227.45l-2.84-1.63c-.31,6.09.38,12.31.05,18.4-5.07,93.71-9.79,187.8-11.45,281.56-2.34,8.51-1.26,18.88-1.27,27.84,0,9.69,0,19.42,0,29.11,0-.22-1.34-1.97-1.36-4.28-.26-36.59,1.85-73.06,1.35-109.62-10.04-1.24-8.29,10.78-8.87,11.38-2.44,2.52-4.93-3.46-6-3.79-1.47-.45-3.95.49-5.48-.55-1.03-.7-9.98-20.36-10.47-22.48-.7-3.05,2.55-8.31-2.11-7.35l-1.26,51.31-1.28,1.84c0-2.53-.02-5.06,0-7.59ZM651.6,254.6c-2.57,2.56-11.89,8.14-10.82,12.21,1.01,3.83,16.38,14.27,18.16,19.96l3.63,1.04c7.63-8.98,74.31-68.65,72.96-73.65-.69-2.57-18.75-21.8-21.78-21-.83.22-11.19,9.58-12.98,11.21-16.74,15.22-32.9,34.07-49.16,50.23ZM491.63,458.03c50.04-49.37,100.22-98.62,149.66-148.6,1.08-1.74.83-3.24,0-5.01-.55-1.18-17.23-17.86-18.39-18.45-1.48-.77-2.11-.6-3.2.63l-229.02,228.21-1.97,5.07c5.23,7.6,7.56,16.76,12.21,24.64.61,1.04-.37,2.11,2.16,1.6,29.44-29.44,58.91-58.86,88.54-88.1Z"/>
    <path class="cls-1" d="M216.24,758.77c-.02,9.87.4,19.9,0,29.76-.12,3.12.89,4.13-2.53,1.88.17-4.62-.09-9.3,0-13.92l1.24-.63-1.24-.63c.14-6.28.54-10.45,1.27-16.45h1.27Z"/>
    <path class="cls-1" d="M873.76,804.34c-1.27-18.48-2.57-38-5.13-56.26-.45-3.23.78-17.47.06-18.41-4.78-1.02-1.71,6.32-2.51,9.3-.26.99-4.56.79-2.48,3.3.32.39,3.58-.87,2.46,2.56-3.28-.91-5.28,3.64-5.94,3.79-4.86,1.12-10.26-1.13-14.63-.92-4.81.23-19.51,2.47-24.07,3.81-3.09.91-4.29,3.37-7.3,3.46l-.02-5.06c-11.12,4.61-6.73-3.46-8.9-5.04-1.12-.82-5.64,1.81-7.56,1.24-1.07-3.3,3.8-3.16,3.87-4.57.01-.27-1.24-4.12-1.42-4.25-2-1.46-7.67,6.34-8.32-7.23-.17-3.54,3.12-4.73-3-4.2.23,9.91-.3,19.89-.06,29.8.62,24.86,1.53,48.03,1.32,72.72l-11.41-317.68-101.35,197.44c.59-2.49.63-6.16,1.25-8.86-12.42,16.23-20.64,6.77-21.53-10.13-4.94-1.08-.69,3.36-1.25,3.79-.33.25-2.5-.5-3.46.28-1.24,1.01-2.29,7.72-3.32,9.45-.41.69-2.38,1.3-3.36,2.94,37.19-74.72,73.26-150.16,112.09-224.05,14.07-26.76,36.9-82.4,66.25-92.02,14.39-4.72,66.65-4.43,83.33-2.94,6.06.54,10.14,2.14,7.93,9.3-1.27,4.13-21.02,8.84-27.01,12.26-39.15,22.4-24.54,79.09-23.38,117.03,2.07,67.5,2.67,135.1,7.6,202.51l1.21,76.63Z"/>
    <path class="cls-1" d="M645.72,705.62c.98-1.64,2.95-2.25,3.36-2.94,1.02-1.73,2.07-8.44,3.32-9.45.97-.78,3.14-.03,3.46-.28.56-.43-3.69-4.88,1.25-3.79.89,16.9,9.11,26.36,21.53,10.13-.62,2.69-.67,6.37-1.25,8.86-.09.4.11.88,0,1.27l-1.27,1.27c-.47,1.51-1.11,2.11-1.27,2.53l-4.92,7.37c-2.3,6.95-6.14,13.79-9.93,20.2l-2.89,10.4c-35.5,73.84-73.45,146.49-110.01,219.81-6.18,14.96-29.58,12.74-37.2.03-42.18-85.71-84.76-171.24-127.71-256.54.59-7.32-5.67-11.73-7.56-18.4-.81-2.87,2.13-1.76,3.76-1.84-2.32,5.24-.21,2.97,2.57,5.61,2.37,2.26,11.47,10.13,12.32,11.16.98,1.19-.09,3.49,2.43,4.51,4.87,1.98,8.69,1.16,13.09-1.04-.44,7.8,7.56,5.01,11.9,5.18,2.38.09,4.88,1.77,7.55,1.18.95-.21.86-2.57,1.52-2.63,2.51-.24,3.76,1.98,5.24,2.17,7.56.96,18.97.5,25.82-2.66,2.25-1.04,4.45-3.95,5.92-4.33,2.71-.69,5.33,1.53,7.18,1.01,1.31-.37,3.22-8.2,7.94-.76.84,1.32,2.78,8.9,3.19,9.49.47.69,2.17.06,2.3.21,5.03,5.49,14.75,28.01,18.85,36.22,15.98,32,30.9,71.84,48.9,101.76,1.06,1.77,4.08,8.12,6.34,7.57.99-.24,8.89-15.29,10.18-17.69,25.48-47.3,46.68-99.65,74.09-145.58Z"/>
    <path class="cls-1" d="M790.14,828.39c.21-24.69-.7-47.86-1.32-72.72-.25-9.92.28-19.9.06-29.8,6.12-.53,2.83.66,3,4.2.65,13.57,6.32,5.77,8.32,7.23.18.13,1.44,3.98,1.42,4.25-.07,1.41-4.94,1.27-3.87,4.57,1.92.57,6.44-2.06,7.56-1.24,2.16,1.58-2.23,9.65,8.9,5.04l.02,5.06c3-.09,4.2-2.55,7.3-3.46,4.56-1.34,19.26-3.58,24.07-3.81,4.37-.21,9.77,2.04,14.63.92.66-.15,2.66-4.7,5.94-3.79,1.12-3.43-2.13-2.17-2.46-2.56-2.08-2.52,2.22-2.32,2.48-3.3.8-2.98-2.27-10.32,2.51-9.3.72.94-.51,15.18-.06,18.41,2.56,18.26,3.86,37.78,5.13,56.26.09,1.26-.09,2.54,0,3.8l1.27,2.53c1.89,28.36,1.47,57.1,3.81,85.42,2.2,26.49,4.84,52.61,32.07,64.15,5.55,2.35,21.99,5.67,24.41,8.52,3.36,3.95,2.82,10.21-2.93,11.23l-198.68.34c-6.9.25-8.62-2.69-6.66-9.31,1.55-5.23,25.56-8.6,32.08-10.97,7.67-2.79,15.66-6.96,20.85-13.35,18.66-22.96,9.91-88.13,10.17-118.31Z"/>
    <path class="cls-1" d="M216.24,758.77l1.28-1.84,1.26-51.31c4.66-.96,1.41,4.3,2.11,7.35.49,2.12,9.44,21.79,10.47,22.48,1.52,1.03,4.01.09,5.48.55,1.07.33,3.56,6.31,6,3.79.58-.6-1.17-12.62,8.87-11.38.5,36.57-1.62,73.04-1.35,109.62.02,2.31,1.36,4.06,1.36,4.28.5,44.56-9.69,97.1,40.56,118.32,9.59,4.05,31.29,4.68,24.08,19.04h-172.35c-6.23-13.59,9.94-12.83,19.01-16.51,23.6-9.58,36.78-32.46,42.47-56.29l5.7-36.71c.04,1.61-1.03,6.4,1.25,6.32-.73-7.67,1.63-16.82-1.25-24.04.06-20.78,1.75-41.3,2.53-62.02,3.43,2.25,2.41,1.24,2.53-1.88.39-9.86-.02-19.9,0-29.76Z"/>
    <path class="cls-1" d="M216.24,758.77h-1.27c.28-2.35-1.05-6.17,1.27-7.59-.02,2.53,0,5.06,0,7.59Z"/>
    <path class="cls-1" d="M867.4,186.7c.91.75,5.65,18.31,7.41,22.36,6.76,15.54,14.34,27.98,29.76,36.09,9.32,4.9,21.33,6.78,29.65,10.88,1.54.76,2.92,1.36,2.91,3.43,0,1.71-26.99,10.1-31.71,12.65-27.03,14.6-26,33.12-36.63,57.07-.75,1.7-.96,3.06-3.25,3.09-1.59.02-8.83-26.09-10.55-29.99-13.96-31.53-28.65-28.85-55.43-40.81-1.52-.68-3.36-1.12-3.09-3.24,25.61-9.36,44.67-13.89,57.24-40.3,4.47-9.38,8.25-21.34,9.92-31.21,1.04.14,3.42-.29,3.77,0Z"/>
    <path class="cls-1" d="M804.71,42.97c7.23.02,12.05,9.36,8.8,15.83l-43.08,75.93c-8.08,10.98-22.11,2.65-17.3-9.7l41.03-75.45c1.87-3.26,6.82-6.62,10.56-6.61Z"/>
    <path class="cls-1" d="M639.02,36.32c6.17-1.85,11.04,2.15,13.68,7.34,11.93,23.46,18.21,55.1,29.51,79.45,2.49,9.17-9.93,15.91-16.2,9.77-1.72-1.68-7.08-16.84-8.57-20.55-8.89-22.13-15.77-45.11-25.37-66.98-.23-2.61,4.6-8.33,6.95-9.03Z"/>
    <path class="cls-1" d="M737.85,302.12c4.52-.99,8.14.07,11.06,3.6,4.85,5.85,13.42,27.43,17.38,35.8,6.98,14.74,13.42,29.85,19.82,44.86,1.32,10.03-12.26,15.09-17.29,5.77-9-21.3-20.3-41.7-29.58-62.84-3.02-6.89-13.55-24.52-1.39-27.18Z"/>
    <path class="cls-1" d="M533.29,147.78c1.33-1.4,6.51-3.26,8.55-2.36,24.1,10.6,53.64,16.03,77.25,26.74,15.52,7.04,11.56,21.4-2.82,19.32l-78.25-28.19c-6.35-1.44-8.65-11.37-4.73-15.51Z"/>
    <path class="cls-1" d="M251.71,813.2c0-8.96-1.07-19.33,1.27-27.84-.16,9.02,1.18,19.28-1.27,27.84Z"/>
    <path class="cls-1" d="M211.17,852.43c2.89,7.22.52,16.37,1.25,24.04-2.29.07-1.21-4.71-1.25-6.32-.15-5.88-.02-11.84,0-17.72Z"/>
    <path class="cls-1" d="M674.85,713.21c-4.89,13.02-11.68,25.37-17.74,37.97l2.89-10.4c3.79-6.41,7.62-13.25,9.93-20.2l4.92-7.37Z"/>
    <path class="cls-1" d="M875.03,810.67l-1.27-2.53c0,.14,1.12.28,1.27,2.53Z"/>
    <path class="cls-1" d="M676.12,710.68l1.27-1.27c-.26.96-1.24,1.18-1.27,1.27Z"/>
    <path class="cls-1" d="M213.7,776.49c0-.42,0-.84,0-1.27l1.24.63-1.24.63Z"/>
  </g>
</svg>